<svg xmlns="http://www.w3.org/2000/svg" width="32" height="32">
    <path style="stroke:none;fill-rule:evenodd;fill:#000;fill-opacity:1" d="M15.52 5.426c-.207.07-.883.722-5.086 4.914-5.258 5.246-5.098 5.07-5.098 5.66 0 .59-.16.414 5.098 5.66 4.43 4.418 4.867 4.84 5.109 4.918.52.172 1.02.059 1.39-.308.372-.372.485-.875.313-1.395-.078-.238-.414-.594-3.719-3.902l-3.632-3.641h7.816c8.781 0 8.129.031 8.559-.398a1.31 1.31 0 0 0 0-1.868c-.43-.43.222-.398-8.56-.398H9.896l3.632-3.64c3.305-3.31 3.641-3.665 3.72-3.903.171-.52.058-1.023-.313-1.395a1.343 1.343 0 0 0-1.414-.304"/>
</svg>
