<svg xmlns="http://www.w3.org/2000/svg" width="32" height="32">
    <path style="stroke:none;fill-rule:nonzero;fill:#000;fill-opacity:1" d="M28 9.602H2.398A2.401 2.401 0 0 0 0 12v14.398a2.405 2.405 0 0 0 2.398 2.403H28a2.402 2.402 0 0 0 2.398-2.403V12A2.399 2.399 0 0 0 28 9.602Zm0 1.597c.047 0 .094.004.14.012l-12.05 8.035c-.465.309-1.313.309-1.777 0L2.261 11.211a.854.854 0 0 1 .14-.012Zm0 16H2.398a.799.799 0 0 1-.796-.8V12.694l11.824 7.883c.496.332 1.136.496 1.773.496.64 0 1.278-.164 1.774-.496L28.8 12.695v13.703c0 .442-.36.801-.801.801Zm0 0"/>
</svg>
