<svg xmlns="http://www.w3.org/2000/svg" width="32" height="32">
    <path style="stroke:none;fill-rule:nonzero;fill:#000;fill-opacity:1" d="M29.602 8h-4.805c.504-.668.805-1.5.805-2.398 0-2.207-1.797-4-4-4-2.227 0-4.09 1.761-5.004 2.812a11.596 11.596 0 0 0-1.399 1.977 11.95 11.95 0 0 0-1.394-1.977c-.914-1.05-2.782-2.812-5.004-2.812-2.207 0-4 1.793-4 4 0 .898.297 1.73.8 2.398h-4.8C.359 8 0 8.36 0 8.8v4.802c0 .441.36.796.8.796h.802v15.204A2.401 2.401 0 0 0 4 32h22.398a2.405 2.405 0 0 0 2.403-2.398V14.398h.8a.795.795 0 0 0 .797-.796V8.8c0-.442-.355-.801-.796-.801ZM17.805 5.46c1.25-1.437 2.633-2.26 3.797-2.26A2.405 2.405 0 0 1 24 5.601 2.404 2.404 0 0 1 21.602 8h-5.407c.278-.707.836-1.652 1.61-2.54Zm-.203 24.938H12.8V9.602h4.8ZM6.398 5.602a2.406 2.406 0 0 1 2.403-2.403c1.16 0 2.543.824 3.797 2.262.77.887 1.332 1.832 1.605 2.539H8.801a2.405 2.405 0 0 1-2.403-2.398Zm-4.796 4h9.597V12.8H1.602Zm1.597 20V14.398h8v16H4a.799.799 0 0 1-.8-.796Zm24 0c0 .441-.36.796-.8.796h-7.2v-16h8ZM28.801 12.8h-9.602V9.6h9.602Zm0 0"/>
</svg>
