<svg xmlns="http://www.w3.org/2000/svg" width="32" height="32">
    <path style="stroke:none;fill-rule:nonzero;fill:#000;fill-opacity:1" d="M15.2 30.398a.801.801 0 0 1-.387-.097c-.153-.086-3.723-2.082-7.348-5.356-2.145-1.937-3.86-3.918-5.094-5.89C.797 16.543 0 14.035 0 11.602c0-4.633 3.77-8.403 8.398-8.403 1.57 0 3.235.59 4.692 1.656a8.805 8.805 0 0 1 2.11 2.172 8.875 8.875 0 0 1 2.109-2.172C18.766 3.79 20.434 3.2 22 3.2c4.633 0 8.398 3.77 8.398 8.403 0 2.433-.796 4.941-2.37 7.453-1.231 1.972-2.946 3.953-5.09 5.89-3.625 3.274-7.196 5.27-7.348 5.356a.801.801 0 0 1-.387.097ZM8.397 4.801c-3.746 0-6.796 3.05-6.796 6.8 0 4.864 3.757 9.282 6.91 12.133 2.816 2.547 5.672 4.336 6.687 4.942 1.016-.606 3.871-2.395 6.688-4.942 3.152-2.847 6.914-7.27 6.914-12.132C28.8 7.852 25.75 4.8 22 4.8c-2.727 0-5.371 2.242-6.043 4.254a.803.803 0 0 1-.758.547.803.803 0 0 1-.758-.547C13.77 7.043 11.125 4.8 8.398 4.8Zm0 0"/>
</svg>
