<svg xmlns="http://www.w3.org/2000/svg" width="32" height="32">
    <path style="stroke:none;fill-rule:evenodd;fill:#000;fill-opacity:1" d="M6.16 2.7c-.543.109-.71.152-1 .269C4.22 3.352 3.371 4.184 3 5.086c-.328.805-.3-.195-.32 11.977-.016 12.488-.051 11.437.382 11.87.376.372.876.485 1.395.313.234-.078.523-.344 2.852-2.668L9.895 24h7.867c5.148 0 7.98-.02 8.203-.055 1.582-.258 2.863-1.449 3.265-3.039.114-.437.114-14.71 0-15.14-.406-1.598-1.683-2.79-3.257-3.043-.328-.051-19.547-.075-19.813-.024m19.625 2.723c.156.05.352.18.485.308.425.43.398-.109.398 7.602s.027 7.176-.398 7.602c-.43.43.27.398-8.938.398-7.45 0-8.219.008-8.457.09-.23.074-.453.281-1.902 1.719L5.332 24.77l.016-9.25.011-9.254.149-.25c.168-.286.426-.5.719-.606.164-.058 1.91-.074 9.75-.074 8.753-.004 9.574.004 9.808.086"/>
</svg>
