<svg xmlns="http://www.w3.org/2000/svg" width="32" height="32">
    <path style="stroke:none;fill-rule:evenodd;fill:#000;fill-opacity:1" d="M19.652.066a1.39 1.39 0 0 0-.746.637 1.33 1.33 0 0 0 .774 1.899c.101.03.32.07.48.09.977.113 2.262.507 3.281 1.007a10.466 10.466 0 0 1 4.903 4.95 10.59 10.59 0 0 1 .96 3.132c.094.61.196.852.466 1.11.242.234.515.336.898.336.379 0 .652-.102.898-.336.403-.387.489-.77.356-1.614A13.334 13.334 0 0 0 20.746.082c-.582-.094-.867-.098-1.094-.016M4.668 1.422a4.033 4.033 0 0 0-3.125 3.246c-.2 1.148.371 4.3 1.254 6.934 1.797 5.34 5.207 10.097 9.621 13.41a29.052 29.052 0 0 0 7.57 4.093c2.387.848 5.575 1.508 6.918 1.438 1.461-.078 2.711-.918 3.36-2.25.375-.777.375-.762.375-3.758 0-3.027.004-2.984-.407-3.82a3.962 3.962 0 0 0-2.285-2.004c-.36-.098-.722-.176-1.094-.234-1.039-.176-1.664-.332-2.777-.7-.855-.285-.941-.3-1.555-.324-.77-.031-1.246.055-1.824.336-.574.273-.824.461-1.508 1.133l-.62.61-.551-.376a20.391 20.391 0 0 1-5.23-5.254l-.321-.472.61-.621c.675-.692.866-.95 1.136-1.52.27-.566.36-1.055.332-1.824-.024-.602-.04-.688-.324-1.543-.368-1.113-.524-1.738-.7-2.777a10.267 10.267 0 0 0-.234-1.094c-.34-1-1.059-1.82-2.004-2.285-.82-.403-.765-.395-3.66-.414-2.156-.012-2.645 0-2.957.07m5.437 2.719c.493.265.633.539.805 1.554.168.989.438 2.059.742 2.965.266.777.305 1.149.157 1.508-.055.133-.454.574-1.145 1.273-1.004 1.02-1.059 1.082-1.148 1.387-.164.567-.008.957.953 2.399a22.724 22.724 0 0 0 6.172 6.21c1.57 1.06 1.953 1.215 2.53 1.047.306-.09.368-.144 1.392-1.156.656-.648 1.148-1.09 1.265-1.14.348-.145.738-.102 1.512.16.906.304 1.976.574 2.96.742 1.02.172 1.302.32 1.575.832.09.172.102.36.113 2.492.012 1.516-.004 2.379-.039 2.516-.14.52-.715.965-1.238.965-.332 0-1.277-.133-2.152-.301-6.512-1.258-12.426-5.13-16.075-10.528-1.757-2.601-2.91-5.105-3.652-7.949-.34-1.293-.668-3.172-.672-3.816 0-.34.215-.781.488-.996.38-.301.399-.305 2.926-.29 2.262.012 2.324.016 2.531.126m9.547 1.257a1.32 1.32 0 0 0-.898 1.27c0 .281.027.398.152.629.203.375.492.57 1.051.707 2.035.504 3.492 1.941 4.02 3.965.164.64.34.914.726 1.125.36.195.79.215 1.168.047.375-.164.652-.496.75-.895.176-.652-.418-2.348-1.254-3.578-.422-.625-1.41-1.613-2.035-2.035-1.312-.89-3.031-1.465-3.68-1.235"/>
</svg>
