<svg xmlns="http://www.w3.org/2000/svg" width="32" height="32">
    <path style="stroke:none;fill-rule:evenodd;fill:#000;fill-opacity:1" d="M7.566 1.41c-.109.043-.261.117-.343.168-.176.121-4.266 5.543-4.438 5.887l-.117.242.012 9.84c.015 8.863.023 9.867.101 10.105.485 1.512 1.399 2.426 2.899 2.903.238.074 1.312.082 10.082.097 6.664.012 9.93 0 10.175-.039a4.043 4.043 0 0 0 3.075-2.398c.316-.746.289.055.308-10.64.016-8.727.008-9.84-.066-10.028-.043-.117-1.047-1.496-2.227-3.067-1.98-2.632-2.168-2.863-2.414-2.984l-.265-.137-8.293-.007c-6.848-.008-8.328 0-8.489.058m16.766 3.922 1 1.336H6.668l1-1.336L8.664 4h14.672l.996 1.332m2.336 12.766c0 9.84.031 9.074-.398 9.504-.434.433.43.398-10.27.398s-9.836.035-10.27-.398c-.43-.43-.398.335-.398-9.504V9.332h21.336v8.766m-16.477-6.004c-.328.113-.66.465-.777.812-.078.23-.09.387-.066.797.078 1.223.449 2.328 1.148 3.39.313.477 1.262 1.423 1.742 1.743 1.211.797 2.328 1.137 3.762 1.137.594 0 .953-.028 1.281-.098 1.29-.273 2.364-.828 3.285-1.703a6.38 6.38 0 0 0 1.41-1.934c.344-.703.493-1.18.614-1.945.152-1.016.074-1.5-.32-1.895-.868-.863-2.27-.226-2.27 1.028 0 .668-.277 1.535-.676 2.12A3.99 3.99 0 0 1 16 17.325a3.99 3.99 0 0 1-3.324-1.777c-.399-.586-.676-1.453-.676-2.121 0-1.004-.887-1.66-1.809-1.332"/>
</svg>
