<svg width="0" height="0" class="hidden">
  <symbol xmlns="http://www.w3.org/2000/svg" viewBox="0 0 32 32" id="envelope">
    <path d="M28 9.602H2.398A2.401 2.401 0 0 0 0 12v14.398a2.405 2.405 0 0 0 2.398 2.403H28a2.402 2.402 0 0 0 2.398-2.403V12A2.399 2.399 0 0 0 28 9.602Zm0 1.597c.047 0 .094.004.14.012l-12.05 8.035c-.465.309-1.313.309-1.777 0L2.261 11.211a.854.854 0 0 1 .14-.012Zm0 16H2.398a.799.799 0 0 1-.796-.8V12.694l11.824 7.883c.496.332 1.136.496 1.773.496.64 0 1.278-.164 1.774-.496L28.8 12.695v13.703c0 .442-.36.801-.801.801Zm0 0"></path>
  </symbol>
  <symbol xmlns="http://www.w3.org/2000/svg" viewBox="0 0 32 32" id="gift" fill="#fff">
    <path d="M29.602 8h-4.805c.504-.668.805-1.5.805-2.398 0-2.207-1.797-4-4-4-2.227 0-4.09 1.761-5.004 2.812a11.596 11.596 0 0 0-1.399 1.977 11.95 11.95 0 0 0-1.394-1.977c-.914-1.05-2.782-2.812-5.004-2.812-2.207 0-4 1.793-4 4 0 .898.297 1.73.8 2.398h-4.8C.359 8 0 8.36 0 8.8v4.802c0 .441.36.796.8.796h.802v15.204A2.401 2.401 0 0 0 4 32h22.398a2.405 2.405 0 0 0 2.403-2.398V14.398h.8a.795.795 0 0 0 .797-.796V8.8c0-.442-.355-.801-.796-.801ZM17.805 5.46c1.25-1.437 2.633-2.26 3.797-2.26A2.405 2.405 0 0 1 24 5.601 2.404 2.404 0 0 1 21.602 8h-5.407c.278-.707.836-1.652 1.61-2.54Zm-.203 24.938H12.8V9.602h4.8ZM6.398 5.602a2.406 2.406 0 0 1 2.403-2.403c1.16 0 2.543.824 3.797 2.262.77.887 1.332 1.832 1.605 2.539H8.801a2.405 2.405 0 0 1-2.403-2.398Zm-4.796 4h9.597V12.8H1.602Zm1.597 20V14.398h8v16H4a.799.799 0 0 1-.8-.796Zm24 0c0 .441-.36.796-.8.796h-7.2v-16h8ZM28.801 12.8h-9.602V9.6h9.602Zm0 0"></path>
  </symbol>
  <symbol xmlns="http://www.w3.org/2000/svg" viewBox="0 0 32 32" id="account-circle">
    <path d="M16 2.668C8.637 2.668 2.668 8.637 2.668 16S8.637 29.332 16 29.332 29.332 23.363 29.332 16 23.363 2.668 16 2.668M9.426 24.375C10 23.172 13.492 22 16 22s6 1.172 6.574 2.375A10.538 10.538 0 0 1 16 26.668c-2.48 0-4.762-.855-6.574-2.293m15.054-1.934c-1.906-2.32-6.535-3.109-8.48-3.109-1.945 0-6.574.79-8.48 3.11A10.582 10.582 0 0 1 5.332 16c0-5.879 4.79-10.668 10.668-10.668 5.879 0 10.668 4.79 10.668 10.668 0 2.426-.828 4.668-2.188 6.441M16 8a4.655 4.655 0 0 0-4.668 4.668A4.655 4.655 0 0 0 16 17.332a4.655 4.655 0 0 0 4.668-4.664A4.655 4.655 0 0 0 16 8m0 6.668a1.999 1.999 0 1 1 0-4 1.999 1.999 0 1 1 0 4Zm0 0"></path>
  </symbol>
  <symbol id="aparat" xmlns="http://www.w3.org/2000/svg" xmlns:xlink="http://www.w3.org/1999/xlink" viewBox="0 0 20.207 19.909">
    <defs>
      <clipPath id="clip-path">
        <path id="Clip_2" d="M0,0H9.374V6.666H0Z" fill="none"></path>
      </clipPath>
    </defs>
    <g id="Group_3" transform="translate(1.528 0)">
      <path id="Clip_2-2" d="M0,0H9.374V6.666H0Z" transform="translate(0 0)" fill="none"></path>
      <g id="Group_3-2" transform="translate(0 0)" clip-path="url(#clip-path)">
        <path id="Fill_1" d="M9.374.956A7.8,7.8,0,0,0,0,6.666L.847,3.159a4.16,4.16,0,0,1,5-3.045L9.374.956" transform="translate(0 0)" fill="#211d1e"></path>
      </g>
    </g>
    <path id="Fill_4" d="M0,0A7.75,7.75,0,0,1,5.742,9.321l.847-3.507A4.134,4.134,0,0,0,3.527.843L0,0" transform="translate(13.503 1.577)"></path>
    <path id="Fill_6" d="M0,5.709A7.8,7.8,0,0,0,9.374,0L8.527,3.507a4.16,4.16,0,0,1-5,3.045L0,5.709" transform="translate(9.304 13.243)"></path>
    <path id="Fill_8" d="M6.7,9.321A7.75,7.75,0,0,1,.962,0L.114,3.506A4.134,4.134,0,0,0,3.177,8.478L6.7,9.321" transform="translate(0 9.01)"></path>
    <path id="Fill_10" d="M8.886,17.67a8.835,8.835,0,1,1,8.885-8.835A8.871,8.871,0,0,1,8.886,17.67Zm2.5-7.369A2.5,2.5,0,1,0,13.9,12.8,2.509,2.509,0,0,0,11.387,10.3ZM5.032,9.061a2.5,2.5,0,1,0,2.513,2.5A2.51,2.51,0,0,0,5.032,9.061Zm3.79-1.235a1.1,1.1,0,1,0,1.1,1.1A1.1,1.1,0,0,0,8.822,7.826Zm3.906-4.175a2.5,2.5,0,1,0,2.513,2.5A2.51,2.51,0,0,0,12.728,3.651ZM6.372,2.411a2.5,2.5,0,1,0,2.514,2.5A2.51,2.51,0,0,0,6.372,2.411Z" transform="translate(1.218 1.119)"></path>
  </symbol>
  <symbol xmlns="http://www.w3.org/2000/svg" viewBox="0 0 32 32" id="arrow-left">
    <path d="M15.52 5.426c-.207.07-.883.722-5.086 4.914-5.258 5.246-5.098 5.07-5.098 5.66 0 .59-.16.414 5.098 5.66 4.43 4.418 4.867 4.84 5.109 4.918.52.172 1.02.059 1.39-.308.372-.372.485-.875.313-1.395-.078-.238-.414-.594-3.719-3.902l-3.632-3.641h7.816c8.781 0 8.129.031 8.559-.398a1.31 1.31 0 0 0 0-1.868c-.43-.43.222-.398-8.56-.398H9.896l3.632-3.64c3.305-3.31 3.641-3.665 3.72-3.903.171-.52.058-1.023-.313-1.395a1.343 1.343 0 0 0-1.414-.304"></path>
  </symbol>
  <symbol xmlns="http://www.w3.org/2000/svg" viewBox="0 0 16.275 13.563" id="download">
    <defs></defs>
    <g id="Group_33552" transform="translate(-273.63 -264.533)">
      <path id="Path_32483" d="M274.343 270.65l.648 2.992a2.322 2.322 0 0 0 2.27 1.83h9.013a2.323 2.323 0 0 0 2.27-1.832l.647-2.991" transform="translate(0 2.024)"></path>
      <path id="Path_32483-2" d="M284.378 268.431l-3.62 3.62-3.639-3.639" transform="translate(1.018 1.203)"></path>
      <path id="Line_83" d="M0 0v8.121" transform="translate(281.767 265.133)"></path>
    </g>
  </symbol>
  <symbol xmlns="http://www.w3.org/2000/svg" viewBox="0 0 32 32" id="heart">
    <path d="M15.2 30.398a.801.801 0 0 1-.387-.097c-.153-.086-3.723-2.082-7.348-5.356-2.145-1.937-3.86-3.918-5.094-5.89C.797 16.543 0 14.035 0 11.602c0-4.633 3.77-8.403 8.398-8.403 1.57 0 3.235.59 4.692 1.656a8.805 8.805 0 0 1 2.11 2.172 8.875 8.875 0 0 1 2.109-2.172C18.766 3.79 20.434 3.2 22 3.2c4.633 0 8.398 3.77 8.398 8.403 0 2.433-.796 4.941-2.37 7.453-1.231 1.972-2.946 3.953-5.09 5.89-3.625 3.274-7.196 5.27-7.348 5.356a.801.801 0 0 1-.387.097ZM8.397 4.801c-3.746 0-6.796 3.05-6.796 6.8 0 4.864 3.757 9.282 6.91 12.133 2.816 2.547 5.672 4.336 6.687 4.942 1.016-.606 3.871-2.395 6.688-4.942 3.152-2.847 6.914-7.27 6.914-12.132C28.8 7.852 25.75 4.8 22 4.8c-2.727 0-5.371 2.242-6.043 4.254a.803.803 0 0 1-.758.547.803.803 0 0 1-.758-.547C13.77 7.043 11.125 4.8 8.398 4.8Zm0 0"></path>
  </symbol>
  <symbol id="instagram" xmlns="http://www.w3.org/2000/svg" viewBox="0 0 20.027 20.028">
    <path id="Shape" d="M10.014,20.028c-2.714,0-3.068-.011-4.129-.06a5.966,5.966,0,0,1-4.2-1.621,5.972,5.972,0,0,1-1.621-4.2C.011,13.063,0,12.706,0,10.014S.011,6.965.06,5.885a5.972,5.972,0,0,1,1.621-4.2A5.972,5.972,0,0,1,5.885.06C6.965.011,7.323,0,10.014,0s3.049.011,4.129.06a5.972,5.972,0,0,1,4.2,1.621,5.967,5.967,0,0,1,1.621,4.2c.049,1.062.06,1.416.06,4.129s-.011,3.068-.06,4.129a5.967,5.967,0,0,1-1.621,4.2,5.966,5.966,0,0,1-4.2,1.621C13.082,20.016,12.728,20.028,10.014,20.028Zm0-18.223c-2.672,0-2.989.01-4.047.058a4.1,4.1,0,0,0-3.01,1.094,4.35,4.35,0,0,0-1.094,3.01C1.814,7.025,1.8,7.342,1.8,10.014s.01,2.988.058,4.046a4.108,4.108,0,0,0,1.094,3.011,4.351,4.351,0,0,0,3.01,1.094c1.039.048,1.353.058,4.047.058s3.007-.01,4.046-.058a4.108,4.108,0,0,0,3.011-1.094,4.355,4.355,0,0,0,1.094-3.011c.048-1.039.058-1.353.058-4.046s-.01-3.008-.058-4.047a4.1,4.1,0,0,0-1.094-3.01A4.354,4.354,0,0,0,14.06,1.863C13,1.814,12.685,1.8,10.014,1.8Z" transform="translate(0 0)" fill="#111"></path>
    <path id="Shape-2" d="M5.142,10.285a5.142,5.142,0,1,1,5.142-5.142A5.148,5.148,0,0,1,5.142,10.285Zm0-8.48A3.338,3.338,0,1,0,8.48,5.142,3.342,3.342,0,0,0,5.142,1.8Z" transform="translate(4.872 4.872)" fill="#111"></path>
    <ellipse id="Oval" cx="1.202" cy="1.202" rx="1.202" ry="1.202" transform="translate(14.158 3.466)" fill="#111"></ellipse>
  </symbol>
  <symbol id="logo" xmlns="http://www.w3.org/2000/svg" viewBox="0 0 235.965 41.933">
    <g id="_1ac977ff">
      <path id="Path" d="M.072,8.126C-.644,3.5,4.086-.847,8.6.142a25.307,25.307,0,0,1,5.148,1.886c.887,3.882,1.3,7.87,2.178,11.762,1.632-.525,3.506-.941,5.058.053a4.876,4.876,0,0,1,2.282,6.122c-.731,1.7-2.33,2.746-3.7,3.878-1.675,1.356-3.259,2.822-4.915,4.2C13.125,20.57,12.062,13,10.6,5.514c-.641-1.819-3.231-1.2-3.6.511,1.623,8.29,2.932,16.642,4.431,24.956.138.907.546,2.034,1.575,2.211.845.2,1.518-.42,2.126-.893,3.027-2.555,6.12-5.024,9.138-7.583a8.678,8.678,0,0,0,2.738-8.925,8.822,8.822,0,0,0-8.132-6.241C18.249,6.4,17.684,3.246,17.267.07,24.54,2.744,31.842,5.351,39.115,8.026a7.371,7.371,0,0,1,3.568,9.861,11.992,11.992,0,0,1-3.018,3.276C32.672,27.031,25.6,32.81,18.68,38.76c-1.8,1.476-3.734,3.233-6.211,3.161a7.245,7.245,0,0,1-7.482-6.093Q2.468,21.989.072,8.126Z" transform="translate(0 0)" fill="#1ac977"></path>
    </g>
    <g id="_21201fff" transform="translate(48.062 2.143)">
      <path id="Path-2" d="M0,.015Q1.75-.007,3.5,0c-.01,4.455,0,8.911-.014,13.366A10.684,10.684,0,0,1,10.4,10.96a10.168,10.168,0,0,1,9.893,8.481,10.066,10.066,0,0,1-5.18,10.511c-2.466,1.433-5.4,1.28-8.141,1.227,0-1.151,0-2.292,0-3.438,2.366-.038,5,.277,7.032-1.232a6.622,6.622,0,0,0,1.947-8.853,6.8,6.8,0,0,0-9.76-1.915A7.286,7.286,0,0,0,3.513,21.4c-.052,3.266.01,6.533-.014,9.8-1.166-.01-2.333,0-3.494,0Q.019,15.606,0,.015Z" transform="translate(0 0.032)" fill="#21201f"></path>
      <path id="Path-3" d="M1.935.1A2.6,2.6,0,0,1,4.977,3.638a2.641,2.641,0,0,1-4.509.435A2.6,2.6,0,0,1,1.935.1Z" transform="translate(70.958 0)" fill="#21201f"></path>
      <path id="Path-4" d="M16.937.007q1.742-.014,3.49,0,0,10.472,0,20.949a10.318,10.318,0,0,1-3.737,7.956A10.226,10.226,0,0,1,.026,20.388,10.141,10.141,0,0,1,6.51,11.635c2.18-.907,4.575-.64,6.875-.692q-.007,1.719.014,3.453c-2.49-.053-5.242-.167-7.313,1.48-3.033,2.1-3.347,6.862-.909,9.536a6.714,6.714,0,0,0,11.75-4.5Q16.941,10.458,16.937.007Z" transform="translate(143.532 0.03)" fill="#21201f"></path>
      <path id="Path-5" d="M4.171,1.956a10.406,10.406,0,0,1,9.964-1.2A10.168,10.168,0,0,1,20.41,9.945c.033,3.429-.014,6.862.019,10.3-1.166,0-2.333,0-3.5,0,0-3.271.024-6.542,0-9.813-.014-2.946-1.919-6-4.88-6.7A6.726,6.726,0,0,0,3.638,8.975,6.666,6.666,0,0,0,7.356,16.11c1.895.926,4.047.621,6.084.678-.014,1.151-.014,2.3-.014,3.457-2.038-.038-4.123.172-6.1-.43A10.085,10.085,0,0,1,4.171,1.956Z" transform="translate(24.013 10.98)" fill="#21201f"></path>
      <path id="Path-6" d="M0,.036q1.764-.014,3.537,0c-.01.783-.014,1.571-.019,2.364A10.816,10.816,0,0,1,11.093.05a10.151,10.151,0,0,1,9.3,9.474c.067,3.582.01,7.163.019,10.745q-1.75-.014-3.49-.01c0-3.419.052-6.843-.014-10.257a6.681,6.681,0,0,0-13.33-.454c-.086,3.567-.029,7.139-.038,10.706-1.181,0-2.361,0-3.537,0Q.007,10.145,0,.036Z" transform="translate(47.899 10.965)" fill="#21201f"></path>
      <path id="Path-7" d="M.014,0Q1.742.007,3.48.01V20.267c-1.162,0-2.319,0-3.48-.01C.024,13.5.01,6.752.014,0Z" transform="translate(71.822 10.958)" fill="#21201f"></path>
      <path id="Path-8" d="M0,.02c1.176,0,2.352,0,3.533.01,0,.788,0,1.581,0,2.378A10.574,10.574,0,0,1,10.093.016a10.389,10.389,0,0,1,8.574,4.341A10.383,10.383,0,0,1,27.76.035a10.172,10.172,0,0,1,9.531,9.412c.11,3.6,0,7.2.048,10.8q-1.771.007-3.537,0c0-3.414.033-6.834-.019-10.243a6.668,6.668,0,0,0-13.3-.516c-.219,3.577-.052,7.163-.057,10.745-1.176,0-2.342,0-3.513.01,0-3.6.2-7.206-.057-10.8A6.672,6.672,0,0,0,3.571,9.59c-.081,3.548-.024,7.1-.033,10.649L0,20.254Q.014,10.139,0,.02Z" transform="translate(78.816 10.971)" fill="#21201f"></path>
      <path id="Shape" d="M10.35,20.258c-.179,0-.36-.005-.539-.016a9.894,9.894,0,0,1-6.636-2.827A10,10,0,0,1,1.921,4.24,9.974,9.974,0,0,1,7.622.314,11.01,11.01,0,0,1,10.233,0a10.166,10.166,0,0,1,9.506,6.455A10.034,10.034,0,0,1,16.6,18,10.124,10.124,0,0,1,10.35,20.258Zm-.093-16.8h0a5.782,5.782,0,0,0-1.25.136,6.706,6.706,0,0,0-5.36,5.382,6.352,6.352,0,0,0,1.013,4.8,6.493,6.493,0,0,0,4.147,2.818,5.8,5.8,0,0,0,1.441.18A6.817,6.817,0,0,0,14.8,14.931a6.141,6.141,0,0,0,2.07-4.441,6.087,6.087,0,0,0-1.631-4.732,6.852,6.852,0,0,0-4.979-2.305Z" transform="translate(119.621 10.959)" fill="#21201f"></path>
      <path id="Path-9" d="M.173,8.16A10.209,10.209,0,0,1,18.316,4.067c2.142,2.6,2.176,6.1,2.042,9.3-4.456-.019-8.912,0-13.368,0,0-1.151,0-2.3,0-3.443,3.333-.024,6.67.038,10.007-.043A7.325,7.325,0,0,0,12.77,4.053a6.705,6.705,0,0,0-9.1,4.584,6.689,6.689,0,0,0,5.818,8.1c3.618.205,7.246.024,10.874.1q.007,1.726.01,3.457c-3.471-.038-6.941.01-10.412-.019a10.32,10.32,0,0,1-8.893-5.535A10.342,10.342,0,0,1,.173,8.16Z" transform="translate(167.499 10.864)" fill="#21201f"></path>
    </g>
  </symbol>
  <symbol xmlns="http://www.w3.org/2000/svg" viewBox="0 0 32 32" id="message-square">
    <path d="M6.16 2.7c-.543.109-.71.152-1 .269C4.22 3.352 3.371 4.184 3 5.086c-.328.805-.3-.195-.32 11.977-.016 12.488-.051 11.437.382 11.87.376.372.876.485 1.395.313.234-.078.523-.344 2.852-2.668L9.895 24h7.867c5.148 0 7.98-.02 8.203-.055 1.582-.258 2.863-1.449 3.265-3.039.114-.437.114-14.71 0-15.14-.406-1.598-1.683-2.79-3.257-3.043-.328-.051-19.547-.075-19.813-.024m19.625 2.723c.156.05.352.18.485.308.425.43.398-.109.398 7.602s.027 7.176-.398 7.602c-.43.43.27.398-8.938.398-7.45 0-8.219.008-8.457.09-.23.074-.453.281-1.902 1.719L5.332 24.77l.016-9.25.011-9.254.149-.25c.168-.286.426-.5.719-.606.164-.058 1.91-.074 9.75-.074 8.753-.004 9.574.004 9.808.086"></path>
  </symbol>
  <symbol xmlns="http://www.w3.org/2000/svg" viewBox="0 0 32 32" id="phone-call">
    <path d="M19.652.066a1.39 1.39 0 0 0-.746.637 1.33 1.33 0 0 0 .774 1.899c.101.03.32.07.48.09.977.113 2.262.507 3.281 1.007a10.466 10.466 0 0 1 4.903 4.95 10.59 10.59 0 0 1 .96 3.132c.094.61.196.852.466 1.11.242.234.515.336.898.336.379 0 .652-.102.898-.336.403-.387.489-.77.356-1.614A13.334 13.334 0 0 0 20.746.082c-.582-.094-.867-.098-1.094-.016M4.668 1.422a4.033 4.033 0 0 0-3.125 3.246c-.2 1.148.371 4.3 1.254 6.934 1.797 5.34 5.207 10.097 9.621 13.41a29.052 29.052 0 0 0 7.57 4.093c2.387.848 5.575 1.508 6.918 1.438 1.461-.078 2.711-.918 3.36-2.25.375-.777.375-.762.375-3.758 0-3.027.004-2.984-.407-3.82a3.962 3.962 0 0 0-2.285-2.004c-.36-.098-.722-.176-1.094-.234-1.039-.176-1.664-.332-2.777-.7-.855-.285-.941-.3-1.555-.324-.77-.031-1.246.055-1.824.336-.574.273-.824.461-1.508 1.133l-.62.61-.551-.376a20.391 20.391 0 0 1-5.23-5.254l-.321-.472.61-.621c.675-.692.866-.95 1.136-1.52.27-.566.36-1.055.332-1.824-.024-.602-.04-.688-.324-1.543-.368-1.113-.524-1.738-.7-2.777a10.267 10.267 0 0 0-.234-1.094c-.34-1-1.059-1.82-2.004-2.285-.82-.403-.765-.395-3.66-.414-2.156-.012-2.645 0-2.957.07m5.437 2.719c.493.265.633.539.805 1.554.168.989.438 2.059.742 2.965.266.777.305 1.149.157 1.508-.055.133-.454.574-1.145 1.273-1.004 1.02-1.059 1.082-1.148 1.387-.164.567-.008.957.953 2.399a22.724 22.724 0 0 0 6.172 6.21c1.57 1.06 1.953 1.215 2.53 1.047.306-.09.368-.144 1.392-1.156.656-.648 1.148-1.09 1.265-1.14.348-.145.738-.102 1.512.16.906.304 1.976.574 2.96.742 1.02.172 1.302.32 1.575.832.09.172.102.36.113 2.492.012 1.516-.004 2.379-.039 2.516-.14.52-.715.965-1.238.965-.332 0-1.277-.133-2.152-.301-6.512-1.258-12.426-5.13-16.075-10.528-1.757-2.601-2.91-5.105-3.652-7.949-.34-1.293-.668-3.172-.672-3.816 0-.34.215-.781.488-.996.38-.301.399-.305 2.926-.29 2.262.012 2.324.016 2.531.126m9.547 1.257a1.32 1.32 0 0 0-.898 1.27c0 .281.027.398.152.629.203.375.492.57 1.051.707 2.035.504 3.492 1.941 4.02 3.965.164.64.34.914.726 1.125.36.195.79.215 1.168.047.375-.164.652-.496.75-.895.176-.652-.418-2.348-1.254-3.578-.422-.625-1.41-1.613-2.035-2.035-1.312-.89-3.031-1.465-3.68-1.235"></path>
  </symbol>
  <symbol xmlns="http://www.w3.org/2000/svg" viewBox="0 0 32 32" id="search">
    <path d="M13.465 2.727c-4.067.382-7.746 2.957-9.574 6.687a11.982 11.982 0 0 0 2.296 13.73c1.797 1.797 4.016 2.93 6.614 3.376.898.152 2.71.164 3.625.02.77-.126 1.527-.313 2.265-.567 1-.348 2.5-1.164 3.22-1.746l.234-.188 2.566 2.559c2.312 2.304 2.598 2.57 2.832 2.648.52.172 1.02.059 1.39-.312.372-.372.485-.872.313-1.391-.078-.234-.344-.52-2.648-2.832l-2.559-2.566.188-.235c.597-.734 1.394-2.21 1.761-3.27a13.94 13.94 0 0 0 .555-2.242c.133-.816.133-2.644 0-3.464-.219-1.344-.535-2.348-1.102-3.52-2.187-4.512-6.937-7.164-11.976-6.687m2.187 2.664c3.266.37 6.016 2.316 7.418 5.238a9.303 9.303 0 0 1-2.402 11.176 9.307 9.307 0 0 1-11.176.617C5.27 19.609 4.07 13.898 6.812 9.625c1.895-2.95 5.403-4.629 8.84-4.234"></path>
  </symbol>
  <symbol xmlns="http://www.w3.org/2000/svg" viewBox="0 0 32 32" id="shopping-bag">
    <path d="M7.566 1.41c-.109.043-.261.117-.343.168-.176.121-4.266 5.543-4.438 5.887l-.117.242.012 9.84c.015 8.863.023 9.867.101 10.105.485 1.512 1.399 2.426 2.899 2.903.238.074 1.312.082 10.082.097 6.664.012 9.93 0 10.175-.039a4.043 4.043 0 0 0 3.075-2.398c.316-.746.289.055.308-10.64.016-8.727.008-9.84-.066-10.028-.043-.117-1.047-1.496-2.227-3.067-1.98-2.632-2.168-2.863-2.414-2.984l-.265-.137-8.293-.007c-6.848-.008-8.328 0-8.489.058m16.766 3.922 1 1.336H6.668l1-1.336L8.664 4h14.672l.996 1.332m2.336 12.766c0 9.84.031 9.074-.398 9.504-.434.433.43.398-10.27.398s-9.836.035-10.27-.398c-.43-.43-.398.335-.398-9.504V9.332h21.336v8.766m-16.477-6.004c-.328.113-.66.465-.777.812-.078.23-.09.387-.066.797.078 1.223.449 2.328 1.148 3.39.313.477 1.262 1.423 1.742 1.743 1.211.797 2.328 1.137 3.762 1.137.594 0 .953-.028 1.281-.098 1.29-.273 2.364-.828 3.285-1.703a6.38 6.38 0 0 0 1.41-1.934c.344-.703.493-1.18.614-1.945.152-1.016.074-1.5-.32-1.895-.868-.863-2.27-.226-2.27 1.028 0 .668-.277 1.535-.676 2.12A3.99 3.99 0 0 1 16 17.325a3.99 3.99 0 0 1-3.324-1.777c-.399-.586-.676-1.453-.676-2.121 0-1.004-.887-1.66-1.809-1.332"></path>
  </symbol>
  <symbol id="telegram" xmlns="http://www.w3.org/2000/svg" viewBox="0 0 21.086 18.098">
    <g id="Group" transform="translate(0 0)">
      <path id="Shape" d="M20.743.226a.984.984,0,0,0-.976-.162L.621,7.3A.944.944,0,0,0,.631,9.08L5.1,10.716l1.745,5.5a.959.959,0,0,0,.647.628.983.983,0,0,0,.892-.174l2.6-2.077a.362.362,0,0,1,.434-.012l4.69,3.337a.983.983,0,0,0,.92.118.952.952,0,0,0,.6-.693l3.436-16.2A.94.94,0,0,0,20.743.226Z" transform="translate(0)"></path>
      <path id="Shape-2" d="M9.286.084.614,5.318A1.26,1.26,0,0,0,.049,6.744L.987,9.972a.637.637,0,0,0,.618.458l.048,0a.633.633,0,0,0,.592-.545l.244-1.77a1.039,1.039,0,0,1,.33-.624L9.974.97a.55.55,0,0,0,.067-.748A.577.577,0,0,0,9.286.084Z" transform="translate(6.581 3.554)" fill="#fff"></path>
    </g>
  </symbol>
  <symbol xmlns="http://www.w3.org/2000/svg" viewBox="0 0 32 32" id="twitter">
    <path d="M28 8.559a9.813 9.813 0 0 1-2.828.773 4.94 4.94 0 0 0 2.164-2.723 9.92 9.92 0 0 1-3.125 1.196 4.924 4.924 0 0 0-8.52 3.367c0 .387.043.762.13 1.121A13.957 13.957 0 0 1 5.67 7.148a4.885 4.885 0 0 0-.667 2.477c0 1.707.867 3.215 2.191 4.098a4.895 4.895 0 0 1-2.23-.618v.063a4.922 4.922 0 0 0 3.95 4.828 4.902 4.902 0 0 1-2.224.086 4.932 4.932 0 0 0 4.598 3.422A9.875 9.875 0 0 1 4 23.539a13.924 13.924 0 0 0 7.547 2.215c9.058 0 14.012-7.504 14.012-14.012 0-.21-.008-.426-.016-.637A10.085 10.085 0 0 0 28 8.56Zm0 0"></path>
  </symbol>
</svg>